<svg width="52" height="65" viewBox="0 0 52 65" fill="none" xmlns="http://www.w3.org/2000/svg">
<circle cx="20.75" cy="32.5" r="2" fill="white" stroke="white" stroke-width="0.5" stroke-linecap="round"/>
<circle cx="31.25" cy="32.5" r="2" fill="white" stroke="white" stroke-width="0.5" stroke-linecap="round"/>
<path fill-rule="evenodd" clip-rule="evenodd" d="M19.6592 41.25C19.3815 41.25 19.2426 41.25 19.1676 41.3487C19.0926 41.4474 19.1274 41.5731 19.1971 41.8245C19.9412 44.5076 22.7047 46.5 26 46.5C29.2953 46.5 32.0587 44.5076 32.8028 41.8245C32.8725 41.5731 32.9074 41.4474 32.8324 41.3487C32.7573 41.25 32.6184 41.25 32.3407 41.25H19.6592Z" fill="white"/>
<path d="M25.9706 12.7279L23.8493 10.6066C23.1826 9.93992 22.8493 9.60658 22.8493 9.19237C22.8493 8.77816 23.1826 8.44482 23.8493 7.77816L24.5564 7.07105C25.223 6.40438 25.5564 6.07105 25.9706 6.07105C26.3848 6.07105 26.7181 6.40438 27.3848 7.07105L28.0919 7.77816C28.7586 8.44482 29.0919 8.77816 29.0919 9.19237C29.0919 9.60659 28.7586 9.93992 28.0919 10.6066L25.9706 12.7279Z" stroke="white" stroke-width="2"/>
<path d="M25.9705 12.7279V21.2132" stroke="white" stroke-width="2"/>
<path d="M41.8727 25.5184L42.7042 24.9628L42.7042 24.9628L41.8727 25.5184ZM41.8727 48.1483L42.7042 48.7038L42.7042 48.7038L41.8727 48.1483ZM39.4816 50.5394L40.0371 51.3709L40.0371 51.3709L39.4816 50.5394ZM12.5184 50.5394L11.9628 51.3709L11.9628 51.3709L12.5184 50.5394ZM10.1272 48.1483L9.29575 48.7038L9.29575 48.7038L10.1272 48.1483ZM10.1272 25.5184L10.9587 26.074L10.9587 26.074L10.1272 25.5184ZM12.5184 23.1273L13.0739 23.9587L13.0739 23.9587L12.5184 23.1273ZM39.4816 23.1273L38.926 23.9587L38.926 23.9587L39.4816 23.1273ZM21.6642 51.997L21.6598 52.997L21.6642 51.997ZM30.3357 51.997L30.3313 50.997L30.3357 51.997ZM44.3333 36.8333C44.3333 33.8111 44.3345 31.4692 44.1456 29.6121C43.955 27.7383 43.5625 26.2475 42.7042 24.9628L41.0412 26.074C41.6434 26.9752 41.9813 28.0989 42.1559 29.8145C42.3321 31.5469 42.3333 33.7695 42.3333 36.8333H44.3333ZM42.7042 48.7038C43.5625 47.4192 43.955 45.9283 44.1456 44.0545C44.3345 42.1974 44.3333 39.8555 44.3333 36.8333H42.3333C42.3333 39.8971 42.3321 42.1197 42.1559 43.8521C41.9813 45.5678 41.6434 46.6914 41.0412 47.5927L42.7042 48.7038ZM40.0371 51.3709C41.0926 50.6656 41.9989 49.7593 42.7042 48.7038L41.0412 47.5927C40.4819 48.4298 39.7631 49.1486 38.926 49.7079L40.0371 51.3709ZM30.3401 52.997C32.6721 52.9868 34.5439 52.9422 36.0822 52.7295C37.6366 52.5146 38.9152 52.1205 40.0371 51.3709L38.926 49.7079C38.1387 50.234 37.1811 50.5585 35.8082 50.7484C34.4193 50.9404 32.6728 50.9868 30.3313 50.997L30.3401 52.997ZM27.7888 59.325L31.2275 52.4477L29.4386 51.5533L26 58.4306L27.7888 59.325ZM24.2111 59.325C24.9482 60.7991 27.0518 60.7991 27.7888 59.325L26 58.4306H26L24.2111 59.325ZM20.7725 52.4477L24.2111 59.325L26 58.4306L22.5613 51.5533L20.7725 52.4477ZM11.9628 51.3709C13.0847 52.1205 14.3633 52.5146 15.9177 52.7295C17.456 52.9422 19.3278 52.9868 21.6598 52.997L21.6686 50.997C19.3271 50.9868 17.5806 50.9404 16.1917 50.7484C14.8188 50.5585 13.8613 50.234 13.0739 49.7079L11.9628 51.3709ZM9.29575 48.7038C10.001 49.7593 10.9073 50.6656 11.9628 51.3709L13.0739 49.7079C12.2368 49.1486 11.518 48.4298 10.9587 47.5927L9.29575 48.7038ZM7.66663 36.8333C7.66663 39.8555 7.66542 42.1974 7.85433 44.0545C8.04495 45.9283 8.43737 47.4192 9.29575 48.7038L10.9587 47.5927C10.3565 46.6914 10.0186 45.5678 9.84407 43.8521C9.66783 42.1197 9.66663 39.8971 9.66663 36.8333H7.66663ZM9.29575 24.9628C8.43737 26.2475 8.04495 27.7383 7.85433 29.6121C7.66542 31.4692 7.66663 33.8111 7.66663 36.8333H9.66663C9.66663 33.7695 9.66783 31.5469 9.84407 29.8145C10.0186 28.0989 10.3565 26.9752 10.9587 26.074L9.29575 24.9628ZM11.9628 22.2958C10.9073 23.001 10.001 23.9073 9.29575 24.9628L10.9587 26.074C11.518 25.2368 12.2368 24.5181 13.0739 23.9587L11.9628 22.2958ZM23.8333 20.6667C20.8111 20.6667 18.4692 20.6654 16.6121 20.8544C14.7383 21.045 13.2474 21.4374 11.9628 22.2958L13.0739 23.9587C13.9752 23.3565 15.0988 23.0186 16.8145 22.8441C18.5469 22.6679 20.7695 22.6667 23.8333 22.6667V20.6667ZM28.1666 20.6667H23.8333V22.6667H28.1666V20.6667ZM40.0371 22.2958C38.7525 21.4374 37.2616 21.045 35.3878 20.8544C33.5307 20.6654 31.1888 20.6667 28.1666 20.6667V22.6667C31.2304 22.6667 33.453 22.6679 35.1854 22.8441C36.9011 23.0186 38.0247 23.3565 38.926 23.9587L40.0371 22.2958ZM42.7042 24.9628C41.9989 23.9073 41.0926 23.001 40.0371 22.2958L38.926 23.9587C39.7631 24.5181 40.4819 25.2368 41.0412 26.074L42.7042 24.9628ZM22.5613 51.5533C22.6306 51.6918 22.6666 51.8446 22.6666 51.9994H20.6666C20.6666 52.155 20.7029 52.3085 20.7725 52.4477L22.5613 51.5533ZM29.3333 51.9994C29.3333 51.8445 29.3694 51.6917 29.4386 51.5533L31.2275 52.4477C31.297 52.3086 31.3333 52.1551 31.3333 51.9994H29.3333ZM22.6666 51.9994C22.6666 51.4293 22.2021 50.9994 21.6686 50.997L21.6598 52.997C21.129 52.9947 20.6666 52.5669 20.6666 51.9994H22.6666ZM30.3313 50.997C29.7977 50.9994 29.3333 51.4295 29.3333 51.9994H31.3333C31.3333 52.5667 30.8711 52.9947 30.3401 52.997L30.3313 50.997Z" fill="white"/>
</svg>
