<svg width="50" height="50" viewBox="0 0 50 50" fill="none" xmlns="http://www.w3.org/2000/svg">
<path fill-rule="evenodd" clip-rule="evenodd" d="M27.5 5.875H27.4575C25.467 5.875 23.9149 5.87499 22.6612 5.9725C21.3862 6.07167 20.3425 6.27583 19.383 6.72544C17.7861 7.4738 16.4442 8.67485 15.524 10.1794C14.9712 11.0833 14.653 12.0981 14.4137 13.3544C14.1783 14.5896 14.0069 16.1322 13.7871 18.1105L13.7871 18.1106L13.7824 18.1528L13.1417 23.9189C12.9451 25.6887 12.8577 26.428 12.6241 27.12C12.3905 27.812 12.012 28.453 11.0959 29.9799L7.83489 35.4148L7.79738 35.4773L7.79735 35.4774C7.42675 36.0949 7.09232 36.6521 6.8981 37.1205C6.69459 37.6112 6.52584 38.2815 6.90078 38.9437C7.27572 39.6059 7.93735 39.8061 8.46284 39.8841C8.96436 39.9585 9.61429 39.9584 10.3345 39.9583L10.4074 39.9583H44.5926L44.6655 39.9583C45.3857 39.9584 46.0356 39.9585 46.5371 39.8841C47.0626 39.8061 47.7243 39.6059 48.0992 38.9437C48.4741 38.2815 48.3054 37.6112 48.1019 37.1205C47.9077 36.6521 47.5732 36.0949 47.2026 35.4773L47.2026 35.4773L47.1651 35.4148L43.9041 29.9799C42.988 28.453 42.6095 27.812 42.3759 27.12C42.1423 26.428 42.0549 25.6887 41.8582 23.9189L41.5702 21.3267C41.464 21.3311 41.3573 21.3333 41.25 21.3333C40.6609 21.3333 40.0875 21.2662 39.5371 21.1391L39.8705 24.1398L39.8837 24.2591C40.0631 25.8743 40.1702 26.839 40.4809 27.7596C40.7917 28.6802 41.2911 29.5124 42.1273 30.9058L42.1891 31.0089L45.4501 36.4438C45.8704 37.1443 46.1241 37.5724 46.2545 37.8866L46.2612 37.9031L46.2436 37.9057C45.9072 37.9557 45.4095 37.9583 44.5926 37.9583H10.4074C9.59047 37.9583 9.09283 37.9557 8.75635 37.9057L8.73879 37.9031L8.74553 37.8866C8.87584 37.5724 9.12959 37.1443 9.54988 36.4438L12.8109 31.0089L12.8726 30.9059L12.8727 30.9059C13.7088 29.5125 14.2083 28.6802 14.519 27.7596C14.8298 26.839 14.9369 25.8743 15.1162 24.2592L15.1162 24.2591L15.1295 24.1398L15.7702 18.3737C15.9957 16.3441 16.1592 14.8787 16.3783 13.7287C16.5951 12.5909 16.8536 11.8387 17.2302 11.2229C17.9459 10.0527 18.9896 9.11851 20.2317 8.53645C20.8854 8.23012 21.6615 8.0563 22.8163 7.96648C23.9834 7.8757 25.458 7.875 27.5 7.875C29.542 7.875 31.0166 7.8757 32.1837 7.96648C33.3385 8.0563 34.1146 8.23012 34.7683 8.53645C34.9952 8.6428 35.2155 8.76089 35.4284 8.89003C35.8713 8.36017 36.3851 7.89168 36.9552 7.49918C36.534 7.20466 36.0865 6.94548 35.617 6.72544C34.6575 6.27583 33.6138 6.07167 32.3388 5.9725C31.0851 5.87499 29.533 5.875 27.5425 5.875H27.5ZM39.1454 9.67736C38.5417 9.98995 38.0164 10.4328 37.6067 10.9687C37.6628 11.0521 37.7171 11.1369 37.7697 11.2229C38.1464 11.8387 38.4049 12.5909 38.6216 13.7287C38.8209 14.7744 38.9742 16.0809 39.1699 17.8352C39.7907 18.152 40.4933 18.3314 41.2376 18.3333L41.2176 18.1528L41.2129 18.1105C40.9931 16.1322 40.8217 14.5896 40.5863 13.3544C40.3469 12.0981 40.0288 11.0833 39.476 10.1794C39.3712 10.008 39.2609 9.84063 39.1454 9.67736ZM46.3212 38.0939C46.3214 38.0952 46.3215 38.0959 46.3216 38.0959C46.3217 38.096 46.3217 38.0955 46.3216 38.0943C46.3215 38.0931 46.3213 38.0912 46.3209 38.0886C46.321 38.0909 46.3211 38.0927 46.3212 38.0939ZM46.451 37.8588C46.4551 37.8565 46.4575 37.8555 46.4576 37.8556C46.4578 37.8557 46.4558 37.8568 46.451 37.8588ZM8.54234 37.8556C8.54252 37.8555 8.54489 37.8565 8.54894 37.8588C8.54419 37.8568 8.54217 37.8557 8.54234 37.8556ZM8.67907 38.0886C8.67894 38.0933 8.67856 38.0958 8.6784 38.0959C8.67824 38.096 8.67831 38.0937 8.67907 38.0886Z" fill="white"/>
<path d="M20.8593 40.4816C21.251 42.6744 22.1141 44.612 23.3148 45.994C24.5154 47.3759 25.9866 48.125 27.5 48.125C29.0134 48.125 30.4846 47.3759 31.6852 45.994C32.8859 44.612 33.749 42.6744 34.1407 40.4816" stroke="white" stroke-width="2" stroke-linecap="round"/>
<path d="M41.2501 18.8333C44.0575 18.8333 46.3334 16.5574 46.3334 13.75C46.3334 10.9425 44.0575 8.66666 41.2501 8.66666C38.4426 8.66666 36.1667 10.9425 36.1667 13.75C36.1667 16.5574 38.4426 18.8333 41.2501 18.8333Z" fill="white" stroke="white"/>
</svg>
