<svg width="45" height="45" viewBox="0 0 45 45" fill="none" xmlns="http://www.w3.org/2000/svg">
<path d="M12.0897 14.9427C12.3195 12.8742 12.4344 11.84 12.7339 10.9838C13.6411 8.38999 15.8161 6.44332 18.4942 5.82809C19.3783 5.625 20.4188 5.625 22.5 5.625V5.625C24.5812 5.625 25.6217 5.625 26.5058 5.82809C29.1839 6.44332 31.3589 8.38999 32.2661 10.9838C32.5656 11.84 32.6805 12.8742 32.9103 14.9427L33.3824 19.1918C33.5565 20.7582 33.6435 21.5414 33.8785 22.2868C33.9108 22.3891 33.9451 22.4908 33.9814 22.5917C34.2462 23.327 34.6517 24.0028 35.4625 25.3542L37.5576 28.846C38.3634 30.1889 38.7662 30.8604 38.479 31.3677C38.1918 31.875 37.4087 31.875 35.8426 31.875H9.15738C7.59127 31.875 6.80822 31.875 6.52099 31.3677C6.23376 30.8604 6.63664 30.1889 7.44239 28.846L9.53748 25.3542C10.3483 24.0028 10.7538 23.327 11.0186 22.5917C11.0549 22.4908 11.0892 22.3891 11.1215 22.2868C11.3565 21.5414 11.4435 20.7582 11.6176 19.1918L12.0897 14.9427Z" stroke="white" stroke-width="2"/>
<path d="M17.0667 33.1213C17.3872 34.9154 18.0933 36.5007 19.0757 37.6314C20.0581 38.7621 21.2617 39.375 22.5 39.375C23.7383 39.375 24.9419 38.7621 25.9243 37.6314C26.9067 36.5007 27.6128 34.9154 27.9333 33.1213" stroke="white" stroke-width="2" stroke-linecap="round"/>
</svg>
