<svg width="61" height="52" viewBox="0 0 61 52" fill="none" xmlns="http://www.w3.org/2000/svg">
<path d="M12.5439 27.6458C12.5439 24.704 12.5439 23.2331 13.2325 21.9402C13.9211 20.6472 15.2142 19.69 17.8005 17.7755L20.3092 15.9183C24.9839 12.4579 27.3212 10.7277 30.1053 10.7277C32.8895 10.7277 35.2268 12.4579 39.9015 15.9183L42.4102 17.7755C44.9965 19.69 46.2896 20.6472 46.9782 21.9402C47.6667 23.2331 47.6667 24.704 47.6667 27.6458V36.8333C47.6667 40.9188 47.6667 42.9616 46.1971 44.2308C44.7275 45.5 42.3622 45.5 37.6317 45.5H22.579C17.8484 45.5 15.4832 45.5 14.0135 44.2308C12.5439 42.9616 12.5439 40.9188 12.5439 36.8333V27.6458Z" stroke="white" stroke-width="2"/>
<path d="M36.3771 45.5V33.5C36.3771 32.9477 35.9294 32.5 35.3771 32.5H24.8333C24.281 32.5 23.8333 32.9477 23.8333 33.5V45.5" stroke="white" stroke-width="2" stroke-linecap="round" stroke-linejoin="round"/>
</svg>
