<svg width="53" height="52" viewBox="0 0 53 52" fill="none" xmlns="http://www.w3.org/2000/svg">
<path d="M39.2794 6.50002L39.826 6.50002C42.6544 6.50002 44.0686 6.50001 44.9473 7.37869C45.826 8.25737 45.826 9.67159 45.826 12.5L45.826 18.5C45.826 18.9714 45.826 19.2071 45.6795 19.3536C45.5331 19.5 45.2974 19.5 44.826 19.5L32.7329 19.5M39.2794 6.50002L38.7329 6.50002C35.9044 6.50002 34.4902 6.50001 33.6115 7.37869C32.7329 8.25737 32.7329 9.67159 32.7329 12.5L32.7329 19.5M39.2794 6.50002L10.5466 6.50002C8.66101 6.50002 7.7182 6.50002 7.13242 7.0858C6.54663 7.67159 6.54663 8.6144 6.54663 10.5L6.54663 45.5L13.0932 43.3333L19.6397 45.5L26.1863 43.3333L32.7329 45.5L32.7329 19.5" stroke="white" stroke-width="2"/>
<path d="M15.2754 15.1667L24.0041 15.1667" stroke="white" stroke-width="2" stroke-linecap="round"/>
<path d="M17.4575 23.8333H15.2753" stroke="white" stroke-width="2" stroke-linecap="round"/>
<path d="M15.2754 32.5L21.8219 32.5" stroke="white" stroke-width="2" stroke-linecap="round"/>
</svg>
