<svg width="52" height="52" viewBox="0 0 52 52" fill="none" xmlns="http://www.w3.org/2000/svg">
<path d="M26.4006 38.809L26.8426 39.706L26.8426 39.706L26.4006 38.809ZM25.5992 38.809L25.1572 39.706L25.1572 39.706L25.5992 38.809ZM40.1666 19.5C40.1666 24.8556 37.2832 29.1435 33.9923 32.2921C30.7055 35.4368 27.1157 37.3418 25.9586 37.912L26.8426 39.706C28.0855 39.0936 31.8787 37.0823 35.3749 33.7372C38.867 30.3961 42.1666 25.6208 42.1666 19.5H40.1666ZM25.9999 5.33334C33.824 5.33334 40.1666 11.676 40.1666 19.5H42.1666C42.1666 10.5714 34.9285 3.33334 25.9999 3.33334V5.33334ZM11.8333 19.5C11.8333 11.676 18.1759 5.33334 25.9999 5.33334V3.33334C17.0713 3.33334 9.83325 10.5714 9.83325 19.5H11.8333ZM26.0412 37.912C24.8841 37.3418 21.2944 35.4368 18.0076 32.2921C14.7166 29.1435 11.8333 24.8556 11.8333 19.5H9.83325C9.83325 25.6208 13.1329 30.3961 16.6249 33.7372C20.1211 37.0823 23.9144 39.0936 25.1572 39.706L26.0412 37.912ZM25.9586 37.912C25.9668 37.908 25.9813 37.9034 25.9999 37.9034C26.0185 37.9034 26.0331 37.908 26.0412 37.912L25.1572 39.706C25.6914 39.9692 26.3085 39.9692 26.8426 39.706L25.9586 37.912ZM31.4999 19.5C31.4999 22.5376 29.0375 25 25.9999 25V27C30.1421 27 33.4999 23.6421 33.4999 19.5H31.4999ZM25.9999 14C29.0375 14 31.4999 16.4624 31.4999 19.5H33.4999C33.4999 15.3579 30.1421 12 25.9999 12V14ZM20.4999 19.5C20.4999 16.4624 22.9624 14 25.9999 14V12C21.8578 12 18.4999 15.3579 18.4999 19.5H20.4999ZM25.9999 25C22.9624 25 20.4999 22.5376 20.4999 19.5H18.4999C18.4999 23.6421 21.8578 27 25.9999 27V25Z" fill="white"/>
<path d="M42.8875 37.9167C44.599 38.9048 45.5 40.0257 45.5 41.1667C45.5 42.3077 44.599 43.4285 42.8875 44.4167C41.176 45.4048 38.7144 46.2253 35.75 46.7958C32.7856 47.3663 29.423 47.6667 26 47.6667C22.577 47.6667 19.2144 47.3663 16.25 46.7958C13.2856 46.2253 10.824 45.4048 9.11251 44.4167C7.40102 43.4286 6.5 42.3077 6.5 41.1667C6.5 40.0257 7.40102 38.9048 9.1125 37.9167" stroke="white" stroke-width="2" stroke-linecap="round"/>
</svg>
